PathFileType	4	(X/Y/Z)	/Users/itak/Documents/Research/Walk-IL/dataset/trc/00443_00167.trc
DataRate	CameraRate	NumFrames	NumMarkers	Units	OrigDataRate	OrigDataStartFrame	OrigNumFrames
100.000000	100.000000	4	54	mm	100.000000	0	491
Frame#	Time	RPSI			LPSI			L3			STRN			T10			C7			CLAV			RBAK			LBAK			LSHO			LUPA			LAEL			LAOL			LWTS			LWPS			LFRA			LIFD			LHPS			RSHO			RUPA			RAEL			RAOL			RWTS			RWPS			RFRA			RIFD			RHTS			RHPS			RBHD			LFHD			RFHD			LBHD			LHIP			RHIP			RASI			LASI			LKNE			LTHI			LANK			LTIP			LTOE			LMT1			LMT5			LHEE			RKNE			RTHI			RANK			RTIP			RTOE			RMT1			RMT5			RHEE			LHTS			*53			
		X1	Y1	Z1	X2	Y2	Z2	X3	Y3	Z3	X4	Y4	Z4	X5	Y5	Z5	X6	Y6	Z6	X7	Y7	Z7	X8	Y8	Z8	X9	Y9	Z9	X10	Y10	Z10	X11	Y11	Z11	X12	Y12	Z12	X13	Y13	Z13	X14	Y14	Z14	X15	Y15	Z15	X16	Y16	Z16	X17	Y17	Z17	X18	Y18	Z18	X19	Y19	Z19	X20	Y20	Z20	X21	Y21	Z21	X22	Y22	Z22	X23	Y23	Z23	X24	Y24	Z24	X25	Y25	Z25	X26	Y26	Z26	X27	Y27	Z27	X28	Y28	Z28	X29	Y29	Z29	X30	Y30	Z30	X31	Y31	Z31	X32	Y32	Z32	X33	Y33	Z33	X34	Y34	Z34	X35	Y35	Z35	X36	Y36	Z36	X37	Y37	Z37	X38	Y38	Z38	X39	Y39	Z39	X40	Y40	Z40	X41	Y41	Z41	X42	Y42	Z42	X43	Y43	Z43	X44	Y44	Z44	X45	Y45	Z45	X46	Y46	Z46	X47	Y47	Z47	X48	Y48	Z48	X49	Y49	Z49	X50	Y50	Z50	X51	Y51	Z51	X52	Y52	Z52	X53	Y53	Z53	X54	Y54	Z54	

1	0	-1179.296997070312	973.096435546875	-447.33544921875	-1101.120727539062	968.4244384765625	-564.3262329101562	-1141.204223632812	1056.738159179688	-491.6541442871094	-912.0037841796875	1258.458129882812	-364.4162292480469	-1159.16650390625	1180.323852539062	-508.2493286132812	-1115.772583007812	1450.962158203125	-467.477294921875	-944.4094848632812	1371.814575195312	-386.8681030273438	-1213.78369140625	1327.775146484375	-412.16845703125	-1091.554321289062	1403.7080078125	-570.5376586914062	-959.6904296875	1427.237060546875	-585.5772094726562	-907.3525390625	1308.193481445312	-671.2115478515625	-858.8378295898438	1089.95361328125	-671.6441650390625	-961.82568359375	1073.46337890625	-671.287109375	-821.435791015625	892.2506103515625	-575.3963623046875	-818.8558349609375	873.70458984375	-647.2569580078125	-833.5509033203125	1003.448059082031	-660.7758178710938	-816.7761840820312	723.1716918945312	-567.8032836914062	-814.6116943359375	792.6541748046875	-637.6323852539062	-1131.28076171875	1420.37451171875	-290.4536437988281	-1177.4267578125	1356.986206054688	-228.5690002441406	-1173.990600585938	1068.875122070312	-170.7390594482422	-1214.393310546875	1051.525268554688	-222.4138031005859	-1056.209228515625	872.4214477539062	-192.1990356445312	-1133.877807617188	852.91015625	-154.4779663085938	-1170.1494140625	1010.115966796875	-161.3434906005859	-1048.951293945312	713.6494140625	-182.5851593017578	-1039.897338867188	773.5865478515625	-175.5346069335938	-1111.931274414062	767.1221313476562	-151.6880798339844	-1104.362182617188	1644.380615234375	-359.0109252929688	-907.2269287109375	1676.793701171875	-416.2804870605469	-979.1094970703125	1673.3525390625	-306.6934204101562	-1020.293762207031	1651.96044921875	-515.9147338867188	-928.3599243164062	859.8012084960938	-590.3734741210938	-1161.120727539062	863.7748413085938	-271.4269409179688	-1037.464599609375	903.1903686523438	-259.5559997558594	-886.1123046875	895.4624633789062	-470.3258972167969	-972.2415771484375	438.4212036132812	-559.0999755859375	-928.9840698242188	587.8768920898438	-564.7363891601562	-1047.68408203125	35.22573089599609	-586.1229858398438	-980.7723388671875	288.6793212890625	-570.8507690429688	-898.0277709960938	45.05145645141602	-405.4627685546875	-976.7077026367188	49.42599868774414	-421.3385314941406	-915.25244140625	45.64145660400391	-516.9282836914062	-1120.826782226562	40.63040542602539	-575.1680908203125	-1135.439453125	464.8028259277344	-301.8815307617188	-1131.74267578125	726.1129760742188	-244.2530364990234	-1163.706787109375	41.89907455444336	-341.7254333496094	-1145.85107421875	320.3897705078125	-298.752685546875	-956.608642578125	47.89995574951172	-271.5710754394531	-992.695556640625	54.37738037109375	-334.1105651855469	-1063.273559570312	48.16366577148438	-250.9432678222656	-1196.998657226562	33.22385787963867	-415.2117309570312	-804.6116943359375	802.5753173828125	-567.609375	nan	nan	nan	
2	0.01	-1179.320556640625	973.08056640625	-447.3396911621094	-1101.122192382812	968.403564453125	-564.3164672851562	-1141.22607421875	1056.7236328125	-491.6540222167969	-912.0366821289062	1258.491577148438	-364.4459533691406	-1159.255737304688	1180.312744140625	-508.2523193359375	-1115.86572265625	1450.9580078125	-467.5351867675781	-944.4364013671875	1371.85546875	-386.9294128417969	-1213.835693359375	1327.772338867188	-412.1864318847656	-1091.627197265625	1403.678588867188	-570.59765625	-959.7428588867188	1427.230102539062	-585.6283569335938	-907.4855346679688	1308.214721679688	-671.3253173828125	-858.824951171875	1090.039794921875	-671.8502197265625	-961.7413330078125	1073.467407226562	-671.4364624023438	-821.2935180664062	892.2681274414062	-575.7376708984375	-818.75	873.8069458007812	-647.6016845703125	-833.5924072265625	1003.516723632812	-661.0645141601562	-816.66064453125	723.1890869140625	-568.2903442382812	-814.4741821289062	792.7167358398438	-638.0370483398438	-1131.345458984375	1420.432739257812	-290.5130615234375	-1177.4716796875	1357.059204101562	-228.5915679931641	-1173.984008789062	1068.965087890625	-170.6806793212891	-1214.425659179688	1051.633911132812	-222.2898712158203	-1056.24560546875	872.5159301757812	-192.0474090576172	-1133.9169921875	853.0248413085938	-154.2598419189453	-1170.155151367188	1010.243469238281	-161.2301940917969	-1049.02587890625	713.7335815429688	-182.400390625	-1039.9482421875	773.6926879882812	-175.3824310302734	-1111.968627929688	767.2205810546875	-151.4697113037109	-1104.41845703125	1644.389770507812	-359.1091003417969	-907.2908935546875	1676.763061523438	-416.3062438964844	-979.186767578125	1673.358642578125	-306.7848815917969	-1020.359008789062	1651.869750976562	-515.9735717773438	-928.2752685546875	859.707763671875	-590.3832397460938	-1161.129516601562	863.7743530273438	-271.4311218261719	-1037.453002929688	903.196533203125	-259.5461730957031	-886.1131591796875	895.4837036132812	-470.3250427246094	-972.2760009765625	438.4308776855469	-559.1200561523438	-929.0115966796875	587.883056640625	-564.7417602539062	-1047.6806640625	35.2237663269043	-586.1272583007812	-980.8103637695312	288.6703491210938	-570.8814697265625	-898.0325927734375	45.05808639526367	-405.467041015625	-976.6836547851562	49.40635681152344	-421.3545837402344	-915.2554931640625	45.64801406860352	-516.9143676757812	-1120.832275390625	40.62406158447266	-575.1715698242188	-1135.448120117188	464.7971801757812	-301.8796691894531	-1131.776000976562	726.1185913085938	-244.2287902832031	-1163.706176757812	41.89575576782227	-341.7233581542969	-1145.85693359375	320.3882751464844	-298.7451782226562	-956.6177978515625	47.90110778808594	-271.5709838867188	-992.7034301757812	54.37995910644531	-334.1112060546875	-1063.281372070312	48.164794921875	-250.9483489990234	-1196.997680664062	33.21792221069336	-415.2113952636719	-804.4269409179688	802.5681762695312	-568.0435791015625	nan	nan	nan	
3	0.02	-1179.352172851562	973.0596313476562	-447.3486938476562	-1101.126098632812	968.379150390625	-564.3092041015625	-1141.252563476562	1056.705078125	-491.6554260253906	-912.0756225585938	1258.53271484375	-364.4826049804688	-1159.361572265625	1180.297729492188	-508.260498046875	-1115.980102539062	1450.947875976562	-467.6056213378906	-944.4755859375	1371.902221679688	-387.0039367675781	-1213.899780273438	1327.769287109375	-412.2106018066406	-1091.715209960938	1403.63818359375	-570.6705322265625	-959.8026123046875	1427.218505859375	-585.6906127929688	-907.6359252929688	1308.237548828125	-671.4593505859375	-858.8055419921875	1090.13427734375	-672.0946655273438	-961.6441650390625	1073.472534179688	-671.61474609375	-821.1398315429688	892.2843627929688	-576.1664428710938	-818.6467895507812	873.9232177734375	-648.0431518554688	-833.6369018554688	1003.604736328125	-661.4224853515625	-816.4905395507812	723.2056274414062	-568.886474609375	-814.2939453125	792.7937622070312	-638.5427856445312	-1131.425170898438	1420.5029296875	-290.5871276855469	-1177.532592773438	1357.151977539062	-228.6172180175781	-1173.983032226562	1069.078857421875	-170.5983123779297	-1214.464477539062	1051.764770507812	-222.1384582519531	-1056.284057617188	872.6329345703125	-191.8551330566406	-1133.9619140625	853.1660766601562	-153.9918670654297	-1170.16845703125	1010.397766113281	-161.0894317626953	-1049.0986328125	713.831787109375	-182.1740264892578	-1040.009033203125	773.8269653320312	-175.1842651367188	-1112.00927734375	767.3433227539062	-151.2075347900391	-1104.488891601562	1644.397094726562	-359.2393798828125	-907.373046875	1676.72216796875	-416.3385620117188	-979.2972412109375	1673.369262695312	-306.9030151367188	-1020.432189941406	1651.794311523438	-516.0512084960938	-928.175537109375	859.602294921875	-590.3995971679688	-1161.14208984375	863.7741088867188	-271.4372863769531	-1037.438720703125	903.2047119140625	-259.534912109375	-886.1158447265625	895.5078735351562	-470.3249816894531	-972.316650390625	438.4402770996094	-559.1459350585938	-929.0480346679688	587.8889770507812	-564.7498168945312	-1047.679931640625	35.22022247314453	-586.1326293945312	-980.8824462890625	288.6517944335938	-570.9326782226562	-898.0396118164062	45.06401062011719	-405.4727172851562	-976.65966796875	49.38607788085938	-421.3721313476562	-915.2582397460938	45.65412902832031	-516.9015502929688	-1120.8388671875	40.6187744140625	-575.1740112304688	-1135.45703125	464.7907409667969	-301.8776550292969	-1131.8134765625	726.125244140625	-244.203369140625	-1163.706298828125	41.89223480224609	-341.7215881347656	-1145.86328125	320.3861389160156	-298.7395324707031	-956.626708984375	47.90287780761719	-271.57177734375	-992.7110595703125	54.3820915222168	-334.1117553710938	-1063.289916992188	48.16552352905273	-250.9541931152344	-1196.99755859375	33.21101379394531	-415.2098999023438	-804.201904296875	802.5650024414062	-568.5808715820312	nan	nan	nan	
4	0.03	-1179.390625	973.0343017578125	-447.364013671875	-1101.1337890625	968.353759765625	-564.3069458007812	-1141.28271484375	1056.683349609375	-491.6590576171875	-912.11767578125	1258.579711914062	-364.5241394042969	-1159.477661132812	1180.278930664062	-508.2745971679688	-1116.109008789062	1450.930053710938	-467.6852111816406	-944.527587890625	1371.950927734375	-387.0873718261719	-1213.972412109375	1327.766479492188	-412.2403259277344	-1091.813354492188	1403.587158203125	-570.7516479492188	-959.86474609375	1427.201538085938	-585.7608032226562	-907.7894897460938	1308.259521484375	-671.603515625	-858.7799682617188	1090.226806640625	-672.3617553710938	-961.543701171875	1073.47998046875	-671.810791015625	-820.9913330078125	892.2960205078125	-576.6638793945312	-818.5604248046875	874.043212890625	-648.5634765625	-833.6768188476562	1003.708801269531	-661.8329467773438	-816.2672729492188	723.218994140625	-569.5624389648438	-814.0828857421875	792.87890625	-639.128662109375	-1131.515502929688	1420.580810546875	-290.6727905273438	-1177.60888671875	1357.261474609375	-228.6448516845703	-1173.991577148438	1069.212158203125	-170.4910430908203	-1214.50830078125	1051.909057617188	-221.9691162109375	-1056.321166992188	872.7669067382812	-191.6307830810547	-1134.010498046875	853.3265991210938	-153.687744140625	-1170.191284179688	1010.569152832031	-160.9279174804688	-1049.160522460938	713.9398193359375	-181.9137725830078	-1040.072021484375	773.9827880859375	-174.9478454589844	-1112.045532226562	767.4842529296875	-150.9215087890625	-1104.5703125	1644.400512695312	-359.3996887207031	-907.4693603515625	1676.671997070312	-416.377685546875	-979.4403686523438	1673.385375976562	-307.0438842773438	-1020.505859375	1651.744873046875	-516.147216796875	-928.0717163085938	859.4967651367188	-590.422607421875	-1161.158447265625	863.7742919921875	-271.4454345703125	-1037.424072265625	903.2149658203125	-259.5239868164062	-886.121337890625	895.533447265625	-470.3258056640625	-972.3600463867188	438.447998046875	-559.1763305664062	-929.0913696289062	587.8939819335938	-564.7610473632812	-1047.682495117188	35.21503067016602	-586.1387329101562	-980.9895629882812	288.6232299804688	-571.0042114257812	-898.048583984375	45.06867599487305	-405.4795837402344	-976.6383666992188	49.36713027954102	-421.3895263671875	-915.260498046875	45.6591682434082	-516.8912353515625	-1120.845947265625	40.61532592773438	-575.1754150390625	-1135.464599609375	464.7843627929688	-301.8751831054688	-1131.849731445312	726.1317749023438	-244.1819000244141	-1163.70751953125	41.88881683349609	-341.7203979492188	-1145.868774414062	320.3835754394531	-298.7366333007812	-956.63427734375	47.90543746948242	-271.5736389160156	-992.7177124023438	54.38429641723633	-334.1120910644531	-1063.297729492188	48.16568374633789	-250.9598236083984	-1196.998046875	33.20389938354492	-415.2071838378906	-803.9462280273438	802.5689086914062	-569.1954956054688	nan	nan	nan	
